<?xml version="1.0" encoding="UTF-8"?>
<!DOCTYPE svg PUBLIC "-//W3C//DTD SVG 1.1//EN" "http://www.w3.org/Graphics/SVG/1.1/DTD/svg11.dtd">
<svg xmlns="http://www.w3.org/2000/svg" version="1.1" width="1920px" height="1920px" style="shape-rendering:geometricPrecision; text-rendering:geometricPrecision; image-rendering:optimizeQuality; fill-rule:evenodd; clip-rule:evenodd" xmlns:xlink="http://www.w3.org/1999/xlink">
<g><path style="opacity:0.999" fill="#f371a2" d="M 496.5,188.5 C 597.826,182.458 685.159,213.958 758.5,283C 833.954,359.508 867.121,451.674 858,559.5C 842.722,674.682 785.222,761.182 685.5,819C 593.555,866.394 498.888,872.394 401.5,837C 294.491,792.318 226.324,713.818 197,601.5C 174.209,492.74 197.209,395.073 266,308.5C 326.752,238.155 403.585,198.155 496.5,188.5 Z"/></g>
<g><path style="opacity:0.996" fill="#fed410" d="M 1145.5,216.5 C 1158.95,216.529 1171.61,219.695 1183.5,226C 1347.54,308.354 1511.54,390.687 1675.5,473C 1698.19,491.9 1705.69,515.733 1698,544.5C 1691.76,562.491 1679.92,575.325 1662.5,583C 1504.26,661.452 1346.26,740.452 1188.5,820C 1181.51,822.997 1174.51,825.997 1167.5,829C 1131.2,836.135 1105.37,822.968 1090,789.5C 1089.33,786.167 1088.67,782.833 1088,779.5C 1087.33,609.833 1087.33,440.167 1088,270.5C 1094.4,238.933 1113.57,220.933 1145.5,216.5 Z"/></g>
<g><path style="opacity:0.994" fill="#f13433" d="M 1386.5,1058.5 C 1403.62,1056.48 1416.46,1062.81 1425,1077.5C 1445.82,1147.46 1466.32,1217.46 1486.5,1287.5C 1557.83,1288.33 1629.16,1288.83 1700.5,1289C 1719.5,1291.51 1729.84,1302.34 1731.5,1321.5C 1730.68,1332.65 1726.01,1341.81 1717.5,1349C 1662.83,1390.67 1608.17,1432.33 1553.5,1474C 1572.07,1545.78 1590.57,1617.61 1609,1689.5C 1611.22,1713.46 1600.38,1727.46 1576.5,1731.5C 1568.74,1731.08 1561.74,1728.58 1555.5,1724C 1501.96,1680.95 1448.29,1638.12 1394.5,1595.5C 1340.69,1638.14 1287.02,1680.98 1233.5,1724C 1215.1,1735.58 1198.93,1733.08 1185,1716.5C 1183.39,1713.62 1182.06,1710.62 1181,1707.5C 1180.33,1700.5 1180.33,1693.5 1181,1686.5C 1199.64,1615.92 1217.64,1545.26 1235,1474.5C 1180.95,1432.89 1126.79,1391.39 1072.5,1350C 1055.97,1334.42 1054.14,1317.26 1067,1298.5C 1071.6,1293.95 1077.1,1291.12 1083.5,1290C 1156.47,1288.69 1229.47,1288.02 1302.5,1288C 1323.39,1217.21 1344.22,1146.37 1365,1075.5C 1370.21,1067.32 1377.37,1061.65 1386.5,1058.5 Z"/></g>
<g><path style="opacity:0.998" fill="#1086fe" d="M 280.5,1058.5 C 442.834,1058.33 605.167,1058.5 767.5,1059C 813.297,1065.8 843.13,1091.3 857,1135.5C 857.774,1139.15 858.441,1142.81 859,1146.5C 859.667,1311.83 859.667,1477.17 859,1642.5C 850.745,1686.42 825.245,1714.92 782.5,1728C 778.531,1728.85 774.531,1729.52 770.5,1730C 606.167,1730.67 441.833,1730.67 277.5,1730C 229.345,1720.85 199.845,1692.35 189,1644.5C 188.333,1477.83 188.333,1311.17 189,1144.5C 200.348,1095.32 230.848,1066.65 280.5,1058.5 Z"/></g>
</svg>
